# xmcd
#
# Track frame offsets:
#	150
#	14700
#	28057
#	37232
#	48925
#	62252
#	74385
#	85082
#	96127
#	108495
#	119892
#	139175
#	151132
#	164222
#	176132
#	189452
#	202972
#	216705
#	230365
#	245470
#	258717
#
# Disc length: 3611 seconds
#
# Revision: 3
# Processed by: cddbd v1.5.2PL0 Copyright (c) Steve Scherf et al.
# Submitted via: audiograbber 1.83.01
#
DISCID=400e1915
DTITLE=Tammy Wynette - Anniversary: Twenty Years Of Hits
DYEAR=1987
DGENRE=Country
TTITLE0=Alive And Well
TTITLE1=Apartment No. 9
TTITLE2=Your Good Girl's Gonna Go Bad
TTITLE3=I Don't Wanna Play House
TTITLE4=D-I-V-O-R-C-E
TTITLE5=Stand By Your Man
TTITLE6=Singing My Song
TTITLE7=Run, Woman Run
TTITLE8=We Sure Can Love Each Other
TTITLE9=Good Lovin' (Makes It Right)
TTITLE10=Bedtime Story
TTITLE11=Til I Get It Right
TTITLE12=Kids Say The Darndest Things
TTITLE13=Another Lonely Song
TTITLE14=We're Gonna Hold On
TTITLE15=Woman To Woman
TTITLE16=Til I Can Make It On My Own
TTITLE17=Golden Ring
TTITLE18=You And Me
TTITLE19=One Of A Kind
TTITLE20=Two Story House
EXTD=
EXTT0=
EXTT1=
EXTT2=
EXTT3=
EXTT4=
EXTT5=
EXTT6=
EXTT7=
EXTT8=
EXTT9=
EXTT10=
EXTT11=
EXTT12=
EXTT13=
EXTT14=
EXTT15=
EXTT16=
EXTT17=
EXTT18=
EXTT19=
EXTT20=
PLAYORDER=
